<?xml version="1.0" encoding="utf-8"?>
<!-- Generator: Adobe Illustrator 16.0.4, SVG Export Plug-In . SVG Version: 6.00 Build 0)  -->
<!DOCTYPE svg PUBLIC "-//W3C//DTD SVG 1.1//EN" "http://www.w3.org/Graphics/SVG/1.1/DTD/svg11.dtd">
<svg version="1.1"
	 id="svg2" xmlns:dc="http://purl.org/dc/elements/1.1/" xmlns:cc="http://creativecommons.org/ns#" xmlns:rdf="http://www.w3.org/1999/02/22-rdf-syntax-ns#" xmlns:svg="http://www.w3.org/2000/svg" xmlns:sodipodi="http://sodipodi.sourceforge.net/DTD/sodipodi-0.dtd" xmlns:inkscape="http://www.inkscape.org/namespaces/inkscape" sodipodi:version="0.32" inkscape:output_extension="org.inkscape.output.svg.inkscape" sodipodi:docname="Pierre_ciseaux_feuille_l%E9zard_spock.svg" inkscape:version="0.48.0 r9654"
	 xmlns="http://www.w3.org/2000/svg" xmlns:xlink="http://www.w3.org/1999/xlink" x="0px" y="0px" width="600px" height="600px"
	 viewBox="0 0 600 600" enable-background="new 0 0 600 600" xml:space="preserve">
<defs>
	
	
		<inkscape:perspective  sodipodi:type="inkscape:persp3d" inkscape:vp_x="0 : 526.18109 : 1" inkscape:vp_y="0 : 1000 : 0" inkscape:vp_z="744.09448 : 526.18109 : 1" id="perspective9" inkscape:persp3d-origin="372.04724 : 350.78739 : 1">
		</inkscape:perspective>
	
		<inkscape:perspective  sodipodi:type="inkscape:persp3d" inkscape:vp_x="0 : 526.18109 : 1" inkscape:vp_y="0 : 1000 : 0" inkscape:vp_z="744.09448 : 526.18109 : 1" id="perspective2413" inkscape:persp3d-origin="372.04724 : 350.78739 : 1">
		</inkscape:perspective>
	
		<inkscape:perspective  sodipodi:type="inkscape:persp3d" inkscape:vp_x="0 : 526.18109 : 1" inkscape:vp_y="0 : 1000 : 0" inkscape:vp_z="744.09448 : 526.18109 : 1" id="perspective2426" inkscape:persp3d-origin="372.04724 : 350.78739 : 1">
		</inkscape:perspective>
	
		<inkscape:perspective  sodipodi:type="inkscape:persp3d" inkscape:vp_x="0 : 526.18109 : 1" inkscape:vp_y="0 : 1000 : 0" inkscape:vp_z="744.09448 : 526.18109 : 1" id="perspective3367" inkscape:persp3d-origin="372.04724 : 350.78739 : 1">
		</inkscape:perspective>
	
		<inkscape:perspective  sodipodi:type="inkscape:persp3d" inkscape:vp_x="0 : 526.18109 : 1" inkscape:vp_y="0 : 1000 : 0" inkscape:vp_z="744.09448 : 526.18109 : 1" id="perspective3397" inkscape:persp3d-origin="372.04724 : 350.78739 : 1">
		</inkscape:perspective>
</defs>
<sodipodi:namedview  guidetolerance="10.0" gridtolerance="10.0" borderopacity="1.0" objecttolerance="10.0" bordercolor="#666666" pagecolor="#ffffff" showgrid="false" inkscape:zoom="0.5" inkscape:cx="-344" inkscape:cy="300" showguides="true" id="base" inkscape:window-maximized="0" inkscape:guide-bbox="true" inkscape:current-layer="svg2" inkscape:window-y="57" inkscape:window-x="1" inkscape:pageopacity="0.0" inkscape:pageshadow="2" inkscape:window-width="1918" inkscape:window-height="1080">
	</sodipodi:namedview>
<g id="g12095" transform="matrix(0,-1,1,0,-1.9253589,604.54023)">
	<g id="g3488" transform="matrix(0,0.283393,-0.283393,0,227.46772,497.158)">
		
			<path id="use3420" sodipodi:type="arc" sodipodi:ry="343.83746" sodipodi:rx="343.83746" sodipodi:cy="-211.35745" sodipodi:cx="-126.15619" fill="#FFD5D5" stroke="#FF8080" stroke-width="11.4403" stroke-linecap="round" stroke-linejoin="round" d="
			M39.58,358.821c0,165.989-134.562,300.547-300.55,300.547s-300.547-134.558-300.547-300.547S-426.959,58.27-260.971,58.27
			S39.58,192.832,39.58,358.821z"/>
		<g>
			<defs>
				<circle id="SVGID_1_" cx="-260.969" cy="358.817" r="85.173"/>
			</defs>
			<clipPath id="SVGID_2_">
				<use xlink:href="#SVGID_1_"  overflow="visible"/>
			</clipPath>
			<g id="g3267" clip-path="url(#SVGID_2_)">
				
					<path id="path2432" inkscape:connector-curvature="0" sodipodi:nodetypes="csssssssssssscscsssssssssscc" fill="#FFFFFF" stroke="#000000" stroke-linecap="round" stroke-linejoin="round" d="
					M-575.832,459.774c0,0,81.49-34.88,106.828-44.387c11.94-4.483,29.618-5.944,40.724-12.219
					c12.926-7.302,29.191-20.421,36.651-33.257c3.267-5.624,13.736-55.27,19.683-78.055c1.096-4.204,11.544-29.322,19.683-42.082
					c10.627-16.668,32.299-37.775,44.115-53.619c3.887-5.207,6.947-13.732,11.541-18.326c9.187-9.187,24.422-18.681,36.651-23.078
					c5.989-2.154,12.44-3.101,18.326-0.679c2.147,0.886,5.166,4.401,7.464,4.073c16.144-2.298,48.133-4.769,65.839,4.073
					c8.139,4.066,15.917,14.794,19.683,23.078c3.305,7.268-1.434,16.499-2.457,21.73c7.181,3.522,33.791,38.223,38.429,51.572
					c1.806,5.197-0.241,8.591,1.358,13.853c4.252,5.362,11.13,16.641,14.253,24.156c3.698,8.891,5.676,21.758,7.467,31.22
					c2.45,12.929,9.314,30.676,6.11,43.44c-2.519,10.031-15.255,15.472-19.004,25.114c-0.672,1.716-2.116,7.495-3.394,8.822
					c-19.342,20.028-49.06,35.735-80.091,65.16c-15.052,14.27-29.718,30.745-47.513,41.403
					c-8.284,4.962-24.466,12.288-33.257,16.289c-15.703,7.143-30.018,19.825-47.51,27.147c-10.7,4.48-40.146,14.956-55.656,22.399
					c-29.356,14.087-69.698,42.082-88.916,50.225L-575.832,459.774L-575.832,459.774z"/>
				
					<path id="path3224" inkscape:connector-curvature="0" sodipodi:nodetypes="cc" fill="#FFFFFF" fill-opacity="0.0962" stroke="#000000" stroke-linecap="round" stroke-linejoin="round" d="
					M-150.29,207.577c-4.463-2.423-12.044-4.849-18.584-7.271"/>
				
					<path id="path3226" inkscape:connector-curvature="0" sodipodi:nodetypes="czc" fill="#FFFFFF" fill-opacity="0.0962" stroke="#000000" stroke-linecap="round" stroke-linejoin="round" d="
					M-219.24,191.147c4.8,1.802,26.01-5.365,38.247-1.344c12.154,3.99,16.851,22.133,23.97,26.661"/>
				
					<path id="path3228" inkscape:connector-curvature="0" sodipodi:nodetypes="czcc" fill="#FFFFFF" fill-opacity="0.0962" stroke="#000000" stroke-linecap="round" stroke-linejoin="round" d="
					M-168.064,235.048c6.951,4.869,24.222,3.232,32.051,8.622c7.826,5.389,10.445,20.345,17.237,28.819l0,0"/>
				
					<path id="path3230" inkscape:connector-curvature="0" sodipodi:nodetypes="cc" fill="#FFFFFF" fill-opacity="0.0962" stroke="#000000" stroke-linecap="round" stroke-linejoin="round" d="
					M-110.427,273.564c-5.993-7.388-10.166-10.238-14.814-14.273"/>
				
					<path id="path3232" inkscape:connector-curvature="0" sodipodi:nodetypes="czcc" fill="#FFFFFF" fill-opacity="0.0962" stroke="#000000" stroke-linecap="round" stroke-linejoin="round" d="
					M-99.923,303.73c-1.027,2.057,7.223,12.051,8.887,17.509c1.664,5.455-0.551,15.827,0,18.584l0,0"/>
			</g>
		</g>
	</g>
	<g id="g3479" transform="matrix(0,0.283393,-0.283393,0,427.95892,389.90237)">
		
			<path id="use3422" sodipodi:type="arc" sodipodi:ry="343.83746" sodipodi:rx="343.83746" sodipodi:cy="-211.35745" sodipodi:cx="-126.15619" fill="#FFF6D5" stroke="#FFDD55" stroke-width="11.4403" stroke-linecap="round" stroke-linejoin="round" d="
			M657.992,257.399c0,165.989-134.562,300.547-300.55,300.547S56.895,423.388,56.895,257.399S191.453-43.15,357.441-43.15
			S657.992,91.41,657.992,257.399z"/>
		<g>
			<defs>
				<circle id="SVGID_3_" cx="357.443" cy="257.399" r="85.173"/>
			</defs>
			<clipPath id="SVGID_4_">
				<use xlink:href="#SVGID_3_"  overflow="visible"/>
			</clipPath>
			<g id="g3260" clip-path="url(#SVGID_4_)">
				
					<path id="path3240" inkscape:connector-curvature="0" sodipodi:nodetypes="csssssssscsssssscsscssscssssssssc" fill="#FFFFFF" stroke="#000000" stroke-linecap="round" stroke-linejoin="round" d="
					M1.356,430.318c-0.73-0.176,83.813-38.74,120.816-59.05c3.667-2.012,1.344-20.076,4.752-27.828
					c4.146-9.426,32.709-94.843,35.294-102.49c0.696-2.057,19.346-20.736,35.104-41.181c15.9-20.628,25.855-38.874,34.125-42.303
					c8.126-3.365,15.962-3.508,29.728-7.285c11.785-3.232,21.1-8.536,25.252-10.362c7.419-3.263,17.864-6.902,25.111-4.073
					c6.696,2.614,4.094,8.331,5.431,14.933c7.057-7.517,17.778-14.675,26.589-22.261c8.691-7.485,15.469-15.405,22.957-21.858
					c6.971-6.005,17.089-12.549,25.259-19.515c7.364-6.279,12.767-13.029,19.539-17.816c12.378-8.748,32.771-23.627,47.51-27.149
					c10.972-2.621,20.235,1.089,25.793,14.254c1.782,4.214-1.819,12.629-4.073,16.968c19.835-13.384,21.847-20.583,31.903-23.756
					c19.17-6.051,28.274,3.799,29.863,19.005c1.261,12.052-11.275,24.423-21.72,34.616c17.202-12.161,30.349,6.168,31.224,20.362
					c0.393,6.406-4.194,11.506-8.66,17.764c-5.834,8.181-11.413,17.829-15.776,24.995c-9.466,15.547-6.396,8.3-40.724,54.3
					c30.845-25.776,29.759-35.981,42.761-36.653c9.208-0.475,11.641,6.091,14.253,14.933c3.353,11.353-9.239,30.747-15.61,40.724
					c-11.778,18.436-31.51,40.17-45.476,57.013c-11.148,13.448-27.306,30.311-38.009,44.117
					c-10.486,13.525-20.121,35.097-32.578,46.832c-45.769,43.118-116.394,105.267-152.036,118.1
					C205.457,525.278,74.507,597.991,75.341,600C76.636,603.136,1.356,429.639,1.356,430.318z"/>
				
					<path id="path3242" inkscape:connector-curvature="0" sodipodi:nodetypes="ccc" fill="#FFFFFF" fill-opacity="0.1667" stroke="#000000" stroke-linecap="round" stroke-linejoin="round" d="
					M481.899,71.946l-75.281,67.937c-22.22,22.094-45.321,49.484-65.894,61.702"/>
				
					<path id="path3244" inkscape:connector-curvature="0" sodipodi:nodetypes="ccc" fill="#FFFFFF" fill-opacity="0.1667" stroke="#000000" stroke-linecap="round" stroke-linejoin="round" d="
					M521.266,103.168c-23.391,26.296-43.085,50.742-73.037,80.317c-18.253,24.342-48.602,39.515-57.279,58.144"/>
				
					<path id="path3246" inkscape:connector-curvature="0" sodipodi:nodetypes="cc" fill="#FFFFFF" fill-opacity="0.1667" stroke="#000000" stroke-linecap="round" stroke-linejoin="round" d="
					M488.688,218.553c-33.402,43.958-46.155,36.315-77.376,91.628"/>
				
					<path id="path3248" inkscape:connector-curvature="0" sodipodi:nodetypes="ccc" fill="#FFFFFF" fill-opacity="0.1667" stroke="#000000" stroke-linecap="round" stroke-linejoin="round" d="
					M173.754,255.204C220.74,211.79,268.711,193.034,316.969,150l0,0"/>
			</g>
		</g>
	</g>
	<g id="g3472" transform="matrix(0,0.283393,-0.283393,0,561.15154,23.972742)">
		
			<path id="use3424" sodipodi:type="arc" sodipodi:ry="343.83746" sodipodi:rx="343.83746" sodipodi:cy="-211.35745" sodipodi:cx="-126.15619" fill="#F6D5FF" stroke="#E580FF" stroke-width="11.4403" stroke-linecap="round" stroke-linejoin="round" d="
			M1264.037,257.4c0,165.989-134.562,300.548-300.55,300.548S662.938,423.389,662.938,257.4S797.498-43.148,963.487-43.148
			S1264.037,91.411,1264.037,257.4z"/>
		<g>
			<defs>
				<circle id="SVGID_5_" cx="963.488" cy="257.4" r="85.173"/>
			</defs>
			<clipPath id="SVGID_6_">
				<use xlink:href="#SVGID_5_"  overflow="visible"/>
			</clipPath>
			<g id="g3281" clip-path="url(#SVGID_6_)">
				
					<path id="path3275" inkscape:connector-curvature="0" sodipodi:nodetypes="csssssssssssssssssssssssssssssssscc" fill="#FFFFFF" stroke="#000000" stroke-linecap="round" stroke-linejoin="round" d="
					M612.217,428.28c0.546-1.199,108.591-50.116,134.389-65.158c4.38-2.553,70.177-99.082,114.027-143.891
					c6.191-6.325,8.319-17.035,14.568-26.492c5.074-7.683,14.482-14.079,18.012-20.34c12.433-22.054,24.368-53.879,36.651-76.018
					c7.948-14.325,20.1-32.521,29.186-46.154c7.864-11.799,21.594-33.71,31.222-44.119c10.469-11.318,31.82-13.355,35.294,8.823
					c2.016,12.874-15.314,38.874-22.399,54.979c-6.351,14.44-15.407,33.455-21.041,48.19c-3.761,9.842-6.53,21.517-10.762,33.292
					c-3.863,10.748-9.401,21.582-8.92,31.188c0.298,6.008,2.052,13.934,6.787,17.647c5.586,4.382,41.607-30.218,67.193-41.403
					c12.495-5.462,24.673-14.557,48.192-25.113c9.432-4.233,20.586-12.404,29.863-16.968c8.96-4.409,31.524-12.811,41.403-14.254
					c13.105-1.914,26.541,14.675,21.041,29.186c-1.961,5.173-31.899,22.237-45.476,31.901
					c-18.415,13.108-44.667,28.579-61.083,44.117c-20.765,19.649-65.032,33.926-70.587,44.798c-0.875,1.709,1.661,4.599,3.391,5.429
					c3.143,1.508,8.146-2.149,11.541-1.358c8.742,2.04,19.377,9.38,25.111,16.291c16.603,20.002-4.421,36.617-8.143,46.832
					c-1.33,3.649,9.735,9.874,10.858,21.718c1.048,11.051-3.832,22.836-11.537,29.186c-9.435,7.772-27.464,10.975-35.294,20.362
					c-1.94,2.324-1.054,7.579-3.398,9.502c-27.37,22.5-49.284,42.792-70.585,58.371c-20.96,15.329-60.003,39.013-71.268,37.33
					c-6.382-0.953-44.358,24.563-83.484,42.082c-23.777,10.646-73.981,45.475-73.981,45.475L612.217,428.28z"/>
				
					<path id="path3277" inkscape:connector-curvature="0" sodipodi:nodetypes="cc" fill="#FFFFFF" fill-opacity="0.0609" stroke="#000000" stroke-linecap="round" stroke-linejoin="round" d="
					M1032.354,322.398c-6.802-9.806-20.293-13.713-21.041-19.005"/>
				
					<path id="path3279" inkscape:connector-curvature="0" fill="#FFFFFF" fill-opacity="0.0609" stroke="#000000" stroke-linecap="round" stroke-linejoin="round" d="
					M1003.846,382.806l9.504-8.145l12.216-3.394"/>
			</g>
		</g>
	</g>
	<g id="g3457" transform="matrix(0,0.283393,-0.283393,0,42.399766,213.24694)">
		
			<path id="path3414" sodipodi:type="arc" sodipodi:ry="343.83746" sodipodi:rx="343.83746" sodipodi:cy="-211.35745" sodipodi:cx="-126.15619" fill="#D7F4D7" stroke="#87DE87" stroke-width="11.4403" stroke-linecap="round" stroke-linejoin="round" d="
			M207.787-276.91c0,165.989-134.562,300.55-300.549,300.55c-165.989,0-300.549-134.561-300.549-300.55
			s134.56-300.547,300.549-300.547C73.226-577.457,207.787-442.899,207.787-276.91z"/>
		<g>
			<defs>
				<path id="SVGID_7_" d="M207.787-276.91C207.808-110.921,73.263,23.657-92.725,23.678
					c-165.987,0.021-300.564-134.52-300.586-300.509c0-0.028,0-0.052,0-0.079c-0.021-165.985,134.522-300.564,300.511-300.585
					s300.566,134.52,300.588,300.509C207.787-276.958,207.787-276.934,207.787-276.91z"/>
			</defs>
			<clipPath id="SVGID_8_">
				<use xlink:href="#SVGID_7_"  overflow="visible"/>
			</clipPath>
			<g id="g3384" transform="translate(-227.576,-216.444)" clip-path="url(#SVGID_8_)">
				
					<path id="path3382" inkscape:connector-curvature="0" sodipodi:nodetypes="csssccsssssssssssssss" fill="#FFFFFF" stroke="#000000" stroke-linecap="round" stroke-linejoin="round" d="
					M150.282-156.171c-4.528,0.724-27.254,4.559-38.08,7.65c-13.296,3.794-30.373,10.786-43.521,15.062
					c-10.893,3.546-26.246,3.646-33.896,12.182c-8.577,9.569-6.353,40.645-6.771,42.32l58.173,26.596
					c-0.589-5.3,31.281-37.447,35.047-42.058c0,0,25.679-1.809,30.702-3.904c5.021-2.092,38.08-12.064,38.08-12.064l-0.165-0.496
					c-0.302-0.906,28.407,4.783,31.725,4.642c3.343-0.141,26.591,0.145,26.591,0.145c13.336,8.512,25.915,8.198,32.015,9.28
					c32.103,5.686,31.775-14.408,29.847-18.946c-1.098-2.584-35.414-18.16-50.819-25.479c-3.827-1.819-7.56-4.177-11.627-5.369
					c-3.206-0.937-8.977-1.502-12.275-2.05c-5.384-0.896-17.531-4.907-22.912-5.82c-7.021-1.189-16.382-2.006-23.46-2.777
					c-4.85-0.527-13.472-4.266-18.319-3.973C166.91-161.009,158.792-157.529,150.282-156.171L150.282-156.171z"/>
				
					<path id="path3380" inkscape:connector-curvature="0" sodipodi:nodetypes="csssccsssssssssssssss" fill="#FFFFFF" stroke="#000000" stroke-linecap="round" stroke-linejoin="round" d="
					M145.09-186.099c-5.346,0.855-32.163,5.383-44.939,9.032c-15.69,4.48-35.841,12.74-51.357,17.795
					c-12.853,4.187-30.974,4.304-40.001,14.383c-10.123,11.303-7.495,48.006-7.99,49.984l68.647,31.413
					c-0.694-6.258,38.497-38.729,42.942-44.17c0,0,28.72-7.64,34.647-10.114c5.925-2.474,44.937-14.249,44.937-14.249l-0.196-0.586
					c-0.355-1.072,33.522,5.648,37.44,5.483c3.942-0.169,31.377,0.169,31.377,0.169c15.738,10.052,30.581,9.683,37.78,10.958
					c37.885,6.716,37.496-17.016,35.223-22.375c-1.296-3.053-41.793-21.451-59.972-30.094c-4.516-2.147-8.922-4.935-13.718-6.341
					c-3.785-1.106-10.596-1.775-14.485-2.423c-6.354-1.058-20.688-5.796-27.039-6.871c-8.286-1.406-19.332-2.371-27.687-3.284
					c-5.722-0.624-15.896-5.038-21.617-4.693C164.712-191.816,155.13-187.705,145.09-186.099L145.09-186.099z"/>
				
					<path id="path3378" inkscape:connector-curvature="0" sodipodi:nodetypes="csssccsssssssssssssss" fill="#FFFFFF" stroke="#000000" stroke-linecap="round" stroke-linejoin="round" d="
					M164.879-204.652c-5.345,0.855-32.161,5.386-44.939,9.032c-15.69,4.48-36.479,11.093-51.355,17.795
					c-20.276,9.132-66.743,14.466-67.212,27.988c-1.465,42.223-7.495,83.875-7.99,85.853l85.961-45.27
					c-0.693-6.258,34.787-12.757,39.232-18.198c0,0,42.327-6.403,48.252-8.877c5.925-2.474,44.937-14.249,44.937-14.249
					l-0.195-0.586c-0.357-1.072,33.522,5.648,37.439,5.482c3.944-0.169,31.379,0.169,31.379,0.169
					c15.736,10.055,30.581,9.683,37.778,10.958c37.885,6.716,37.497-17.016,35.223-22.371c-1.296-3.057-41.793-21.455-59.972-30.097
					c-4.516-2.147-8.922-4.935-13.718-6.341c-3.785-1.106-10.595-1.771-14.485-2.422c-6.354-1.058-20.688-5.796-27.039-6.871
					c-8.286-1.406-19.33-2.371-27.685-3.281c-5.722-0.627-15.896-5.041-21.617-4.697C184.5-210.369,174.919-206.258,164.879-204.652
					L164.879-204.652z"/>
				
					<path id="path3373" inkscape:connector-curvature="0" sodipodi:nodetypes="csssssccsssssssssssssssssssssssssssss" fill="#FFFFFF" stroke="#000000" stroke-linecap="round" stroke-linejoin="round" d="
					M147.904-196.203c-5.345,0.855-32.161,5.383-44.939,9.032c-15.689,4.48-35.841,12.74-51.355,17.792
					c-12.855,4.187-30.974,4.304-40.001,14.383C1.487-143.69,4.112-106.99,3.62-105.009C3.125-103.031-33.797,17.023-33.797,17.023
					l-102.419,111.953l95.879,82.982c0,0,71.857-75.057,83.516-82.079c17.84-10.745,39.337-6.323,63.19-24.277
					c24.451-18.405,56.219-43.984,62.639-47.448c6.42-3.463,42.542-31.172,42.542-31.172s35.583-24.17,42.003-26.151
					c6.418-1.978,31.076-21.882,31.076-21.882s7.955-26.541,11.313-34.146c7.567-17.137,27.432-35.045,14.959-49.009
					c-8.525-9.545-37.62-3.274-42.599,1.134c-3.839,3.398-24.919,26.968-30.009,41.993c-1.385,4.083-3.942,5.858-3.942,5.858
					s-27.957,17.04-41.508,18.939c-12.061,1.692-24.732,5.686-35.7,0.379c-18.925-9.149-59.153-42.392-60.141-51.3
					c-0.694-6.258,7.578-23.884,12.021-29.329c0,0,34.906-8.873,40.831-11.348s44.937-14.253,44.937-14.253l-0.195-0.582
					c-0.357-1.072,33.522,5.648,37.439,5.479c3.944-0.165,31.379,0.172,31.379,0.172c15.738,10.052,30.581,9.683,37.78,10.958
					c37.883,6.716,37.496-17.016,35.223-22.375c-1.297-3.053-41.794-21.451-59.974-30.094c-4.514-2.147-8.92-4.935-13.718-6.341
					c-3.785-1.11-10.595-1.775-14.485-2.422c-6.353-1.058-20.688-5.796-27.039-6.875c-8.286-1.402-19.33-2.371-27.685-3.281
					c-5.722-0.624-15.896-5.041-21.617-4.693C167.525-201.92,157.946-197.808,147.904-196.203L147.904-196.203z"/>
			</g>
		</g>
	</g>
	<g id="g3465" transform="matrix(0,0.283393,-0.283393,0,245.69481,-74.870476)">
		
			<path id="use3418" sodipodi:type="arc" sodipodi:ry="343.83746" sodipodi:rx="343.83746" sodipodi:cy="-211.35745" sodipodi:cx="-126.15619" fill="#D5E5FF" stroke="#80B3FF" stroke-width="11.4403" stroke-linecap="round" stroke-linejoin="round" d="
			M962.251-368.434c0,165.989-134.562,300.55-300.55,300.55c-165.987,0-300.548-134.562-300.548-300.55
			s134.562-300.548,300.548-300.548C827.689-668.983,962.251-534.423,962.251-368.434z"/>
		<g>
			<defs>
				<circle id="SVGID_9_" cx="661.702" cy="-368.434" r="85.173"/>
			</defs>
			<clipPath id="SVGID_10_">
				<use xlink:href="#SVGID_9_"  overflow="visible"/>
			</clipPath>
			<g id="g3409" transform="matrix(1.09754,0,0,1.09754,-162.734,-169.734)" clip-path="url(#SVGID_10_)">
				
					<path id="path3403" inkscape:connector-curvature="0" sodipodi:nodetypes="ccsssssscsssssssscssscssssssssscssssssssssssc" fill="#FFFFFF" stroke="#000000" stroke-linecap="round" stroke-linejoin="round" d="
					M699.962,141.263c-2.033-10.163,0.758-125.965-2.033-142.295c-12.849-13.237-41.783-23.997-60.306-44.044
					c-16.325-17.669-22.898-42.217-37.945-60.984c-7.827-9.763-23.579-28.593-33.203-36.59
					c-8.162-6.783-29.625-17.173-29.815-27.782c-0.182-10.126,13.688-14.17,23.716-15.586c17.419-2.458,51.713,15.501,58.273,23.716
					c1.808,2.265,26.912,24.309,36.592,37.947c10.107-2.118,2.683-38.485,3.388-48.788c0.998-14.614,1.355-31.17,0.677-33.879
					c-0.677-2.711-4.064-21.684-4.743-29.138c-0.678-7.454-6.099-29.137-6.099-32.524c0-3.388-3.388-28.46-3.388-33.203
					c0-4.742-0.08-17.695-1.355-27.782c-1.253-9.909-3.138-32.121-1.356-48.11c1.336-11.975,15.805-23.523,28.46-14.229
					c5.204,3.823,7.367,13.374,10.163,18.973c-1.443-6.612-5.303-26.207-3.388-37.269c3.776-21.793,27.049-20.818,33.203-9.487
					c6.226,11.462,10.039,38.05,14.907,53.531c5.843,18.581,9.165,44.662,12.874,65.05c7.509,15.231,10.824,38.914,18.973,52.852
					c2.306,3.943,6.961,8.432,11.52,8.132c4.752-0.314,4.743,0,12.196-14.907c7.454-14.907,6.457-12.948,10.165-18.973
					c5.421-8.808,8.13-18.295,12.196-24.394c2.254-3.383,9.502-19.954,12.874-29.815c2.892-8.457,6.323-17.163,8.808-25.749
					c3.689-12.741,8.184-28.248,12.874-40.656c6.523-17.254,24.835-17.656,33.203-0.677c6.176,12.532-2.176,31.641-4.743,48.11
					c8.443-11.766,24.328-1.036,26.425,7.454c2.587,10.46,0.87,25.248-0.677,35.912c-0.877,6.052-4.116,13.677-5.421,19.65
					c-1.626,7.444-3.403,15.691-5.421,23.039c-1.91,6.953-5.375,17.49-7.454,24.394c-2.816,9.353-4.46,22.358-6.777,31.846
					c-1.449,5.942-4.557,13.597-5.421,19.651c-2.038,14.289-0.449,33.677-0.677,48.11c-0.184,11.587-0.192,27.044-0.678,38.623
					c-0.9,21.372-1.182,50.055-4.743,71.148c-1.79,10.6-8.132,23.893-9.487,34.556c-5.102,40.138,6.776,135.523,2.033,134.845
					C843.613,141.263,698.607,142.619,699.962,141.263L699.962,141.263z"/>
				
					<path id="path3405" inkscape:connector-curvature="0" sodipodi:nodetypes="ccc" fill="#FFFFFF" fill-opacity="0.1346" stroke="#000000" stroke-linecap="round" stroke-linejoin="round" d="
					M680.99-374.392c5.57,30.747,15.772,74.515,27.78,146.363l0,0"/>
				
					<path id="path3407" inkscape:connector-curvature="0" sodipodi:nodetypes="cc" fill="#FFFFFF" fill-opacity="0.1346" stroke="#000000" stroke-linecap="round" stroke-linejoin="round" d="
					M866.653-348.643c-28.322,79.722-16.609,34.396-49.465,135.521"/>
			</g>
		</g>
	</g>
	<g id="g12143">
		<path id="path3502" inkscape:connector-curvature="0" fill="#87DE87" stroke="#87DE87" stroke-width="1.417" d="M268.719,138
			l-66.906,21.562l0.438,1.344l66.906-21.562L268.719,138z"/>
		<path id="path12149" inkscape:connector-curvature="0" fill="#87DE87" stroke="#87DE87" stroke-width="1.1336" d="M255.459,143.03
			l-3.656,7.133l17.144-11.479l-20.621,0.69L255.459,143.03L255.459,143.03z"/>
	</g>
	<g id="g12151">
		<path id="path3504" inkscape:connector-curvature="0" fill="#80B3FF" stroke="#80B3FF" stroke-width="1.417" d="M399.906,181.844
			l-1.125,0.875l35.531,45.781l1.125-0.875L399.906,181.844z"/>
		<path id="path12157" inkscape:connector-curvature="0" fill="#80B3FF" stroke="#80B3FF" stroke-width="1.1336" d="
			M426.199,216.878l-7.952-1.004l16.637,12.201l-7.68-19.148L426.199,216.878L426.199,216.878z"/>
	</g>
	<g id="g12159">
		<path id="path3506" inkscape:connector-curvature="0" fill="#E580FF" stroke="#E580FF" stroke-width="1.417" d="M436.375,365.593
			l-34.781,54.25l1.188,0.75l34.781-54.25L436.375,365.593z"/>
		<path id="path12165" inkscape:connector-curvature="0" fill="#E580FF" stroke="#E580FF" stroke-width="1.1336" d="M409.835,408.29
			l-1.714-7.83l-5.93,19.761l15.475-13.646L409.835,408.29L409.835,408.29z"/>
	</g>
	<g id="g12167">
		<path id="path3508" inkscape:connector-curvature="0" fill="#FF8080" stroke="#FF8080" stroke-width="1.417" d="M123.375,273.531
			l-1.406,0.031l1.312,63.062l1.406-0.031L123.375,273.531z"/>
		<path id="path12173" inkscape:connector-curvature="0" fill="#FF8080" stroke="#FF8080" stroke-width="1.1336" d="
			M122.967,287.715l5.784,5.549l-6.078-19.715l-5.255,19.951L122.967,287.715z"/>
	</g>
	<g id="g12175">
		<path id="path3510" inkscape:connector-curvature="0" fill="#FFDD55" stroke="#FFDD55" stroke-width="1.417" d="M208.5,446.843
			l-0.406,1.375l63.531,19.344l0.406-1.375L208.5,446.843z"/>
		<path id="path12181" inkscape:connector-curvature="0" fill="#FFDD55" stroke="#FFDD55" stroke-width="1.1336" d="
			M221.855,451.657l7.072-3.771l-20.628-0.357l17.326,11.201L221.855,451.657z"/>
	</g>
	<g id="g12183">
		<path id="path3512" inkscape:connector-curvature="0" fill="#E580FF" stroke="#E580FF" stroke-width="1.417" d="M203.594,211.531
			l-0.406,1.375l201.625,61.563l0.406-1.344L203.594,211.531z"/>
		<path id="path12189" inkscape:connector-curvature="0" fill="#E580FF" stroke="#E580FF" stroke-width="1.1336" d="
			M216.944,216.362l7.076-3.766l-20.629-0.373l17.318,11.214L216.944,216.362L216.944,216.362z"/>
	</g>
	<g id="g12191">
		<path id="path3514" inkscape:connector-curvature="0" fill="#87DE87" stroke="#87DE87" stroke-width="1.417" d="M172.469,255.469
			l-1.125,0.875l132.094,166.343l1.094-0.875L172.469,255.469z"/>
		<path id="path12197" inkscape:connector-curvature="0" fill="#87DE87" stroke="#87DE87" stroke-width="1.1336" d="
			M295.175,411.159l-7.963-0.914l16.773,12.012l-7.896-19.061L295.175,411.159L295.175,411.159z"/>
	</g>
	<g id="g12199">
		<path id="path3516" inkscape:connector-curvature="0" fill="#80B3FF" stroke="#80B3FF" stroke-width="1.417" d="M299.188,181.187
			L177.563,353.156l1.156,0.844l121.625-172L299.188,181.187z"/>
		<path id="path12205" inkscape:connector-curvature="0" fill="#80B3FF" stroke="#80B3FF" stroke-width="1.1336" d="M186.33,342.009
			l-1.355-7.899l-6.826,19.469l16.082-12.924L186.33,342.009L186.33,342.009z"/>
	</g>
	<g id="g12207">
		<path id="path3518" inkscape:connector-curvature="0" fill="#FFDD55" stroke="#FFDD55" stroke-width="1.417" d="M351.938,199.219
			l-1.406,0.031l2.656,205.375l1.406-0.031L351.938,199.219z"/>
		<path id="path12213" inkscape:connector-curvature="0" fill="#FFDD55" stroke="#FFDD55" stroke-width="1.1336" d="M351.412,213.41
			l5.741,5.594l-5.925-19.762l-5.41,19.909L351.412,213.41z"/>
	</g>
	<g id="g12215">
		<path id="path3520" inkscape:connector-curvature="0" fill="#FF8080" stroke="#FF8080" stroke-width="1.417" d="M406.813,323.781
			l-200.781,70.625l0.469,1.344l200.781-70.625L406.813,323.781z"/>
		<path id="path12221" inkscape:connector-curvature="0" fill="#FF8080" stroke="#FF8080" stroke-width="1.1336" d="
			M393.679,329.153l-3.465,7.228l16.832-11.93l-20.594,1.236L393.679,329.153L393.679,329.153z"/>
	</g>
</g>
</svg>
